<?xml version="1.0" encoding="UTF-8" standalone="no"?>
<!DOCTYPE svg PUBLIC "-//W3C//DTD SVG 1.1//EN"
 "http://www.w3.org/Graphics/SVG/1.1/DTD/svg11.dtd">
<!-- Generated by graphviz version 12.2.1 (20241206.2353)
 -->
<!-- Title: core::EventHandler Pages: 1 -->
<svg width="1360pt" height="220pt"
 viewBox="0.00 0.00 1359.75 219.75" xmlns="http://www.w3.org/2000/svg" xmlns:xlink="http://www.w3.org/1999/xlink">
<g id="graph0" class="graph" transform="scale(1 1) rotate(0) translate(4 215.75)">
<title>core::EventHandler</title>
<!-- Node1 -->
<g id="Node000001" class="node">
<title>Node1</title>
<g id="a_Node000001">
<rect fill="#444477" stroke="none" width="92" height="95" x="656.38" y="-211.75" rx="10" ry="10" />
<text fill="white" text-anchor="start" x="660.38" y="-198.25" font-family="Helvetica,sans-Serif" font-size="10.00">core::EventHandler</text>
<text fill="white" text-anchor="start" x="661.44" y="-183" font-family="Helvetica,sans-Serif" font-size="10.00">#</text>
<text fill="white" text-anchor="start" x="671.75" y="-183" font-family="Helvetica,sans-Serif" font-size="10.00">subevents</text>
<text fill="white" text-anchor="start" x="661.06" y="-167.75" font-family="Helvetica,sans-Serif" font-size="10.00">+</text>
<text fill="white" text-anchor="start" x="671.75" y="-167.75" font-family="Helvetica,sans-Serif" font-size="10.00">EventHandler()</text>
<text fill="white" text-anchor="start" x="661.06" y="-152.5" font-family="Helvetica,sans-Serif" font-size="10.00">+</text>
<text fill="white" text-anchor="start" x="671.75" y="-152.5" font-family="Helvetica,sans-Serif" font-size="10.00">~EventHandler()</text>
<text fill="white" text-anchor="start" x="661.06" y="-137.25" font-family="Helvetica,sans-Serif" font-size="10.00">+</text>
<text fill="white" text-anchor="start" x="671.75" y="-137.25" font-family="Helvetica,sans-Serif" font-size="10.00">GetGame()</text>
<text fill="white" text-anchor="start" x="661.06" y="-122" font-family="Helvetica,sans-Serif" font-size="10.00">+</text>
<text fill="white" text-anchor="start" x="671.75" y="-122" font-family="Helvetica,sans-Serif" font-size="10.00">Fire()</text>
<polygon fill="#666666" stroke="#666666" points="656.38,-194.5 656.38,-194.5 748.38,-194.5 748.38,-194.5 656.38,-194.5"/>
<polygon fill="#666666" stroke="#666666" points="656.38,-179.25 656.38,-179.25 669.75,-179.25 669.75,-179.25 656.38,-179.25"/>
<polygon fill="#666666" stroke="#666666" points="669.75,-179.25 669.75,-179.25 748.38,-179.25 748.38,-179.25 669.75,-179.25"/>

</g>
</g>
<!-- Node2 -->
<g id="Node000002" class="node">
<title>Node2</title>
<g id="a_Node000002">
<rect fill="#444477" stroke="none" width="140" height="80" x="0" y="-80.25" rx="10" ry="10" />
<text fill="white" text-anchor="start" x="4" y="-66.75" font-family="Helvetica,sans-Serif" font-size="10.00">core::BulletMoveEventHandler</text>
<text fill="white" text-anchor="start" x="68.88" y="-51.5" font-family="Helvetica,sans-Serif" font-size="10.00"> </text>
<text fill="white" text-anchor="start" x="6.19" y="-36.25" font-family="Helvetica,sans-Serif" font-size="10.00">+</text>
<text fill="white" text-anchor="start" x="18.38" y="-36.25" font-family="Helvetica,sans-Serif" font-size="10.00">BulletMoveEventHandler()</text>
<text fill="white" text-anchor="start" x="6.19" y="-21" font-family="Helvetica,sans-Serif" font-size="10.00">+</text>
<text fill="white" text-anchor="start" x="18.38" y="-21" font-family="Helvetica,sans-Serif" font-size="10.00">Fire()</text>
<text fill="white" text-anchor="start" x="6.19" y="-5.75" font-family="Helvetica,sans-Serif" font-size="10.00">+</text>
<text fill="white" text-anchor="start" x="18.38" y="-5.75" font-family="Helvetica,sans-Serif" font-size="10.00">AddManagedBullet()</text>
<polygon fill="#666666" stroke="#666666" points="0,-63 0,-63 140.75,-63 140.75,-63 0,-63"/>
<polygon fill="#666666" stroke="#666666" points="0,-47.75 0,-47.75 140.75,-47.75 140.75,-47.75 0,-47.75"/>

</g>
</g>
<!-- Node1&#45;&gt;Node2 -->
<g id="edge1_Node000001_Node000002" class="edge">
<title>Node1&#45;&gt;Node2</title>
<g id="a_edge1_Node000001_Node000002">
<path fill="none" stroke="#63b8ff" d="M645.26,-160.3C543.46,-154.21 324.84,-135.33 149.38,-80.25 146.45,-79.33 143.51,-78.32 140.56,-77.23"/>
<polygon fill="none" stroke="#63b8ff" points="644.81,-163.78 654.99,-160.86 645.21,-156.79 644.81,-163.78"/>

</g>
</g>
<!-- Node3 -->
<g id="Node000003" class="node">
<title>Node3</title>
<g id="a_Node000003">
<rect fill="#444477" stroke="none" width="144" height="65" x="158.88" y="-72.62" rx="10" ry="10" />
<text fill="white" text-anchor="start" x="162.88" y="-59.12" font-family="Helvetica,sans-Serif" font-size="10.00">core::CollectiblesEventHandler</text>
<text fill="white" text-anchor="start" x="228.88" y="-43.88" font-family="Helvetica,sans-Serif" font-size="10.00"> </text>
<text fill="white" text-anchor="start" x="165.06" y="-28.62" font-family="Helvetica,sans-Serif" font-size="10.00">+</text>
<text fill="white" text-anchor="start" x="177.25" y="-28.62" font-family="Helvetica,sans-Serif" font-size="10.00">CollectiblesEventHandler()</text>
<text fill="white" text-anchor="start" x="165.06" y="-13.38" font-family="Helvetica,sans-Serif" font-size="10.00">+</text>
<text fill="white" text-anchor="start" x="177.25" y="-13.38" font-family="Helvetica,sans-Serif" font-size="10.00">Fire()</text>
<polygon fill="#666666" stroke="#666666" points="158.88,-55.38 158.88,-55.38 301.88,-55.38 301.88,-55.38 158.88,-55.38"/>
<polygon fill="#666666" stroke="#666666" points="158.88,-40.12 158.88,-40.12 301.88,-40.12 301.88,-40.12 158.88,-40.12"/>

</g>
</g>
<!-- Node1&#45;&gt;Node3 -->
<g id="edge2_Node000001_Node000003" class="edge">
<title>Node1&#45;&gt;Node3</title>
<g id="a_edge2_Node000001_Node000003">
<path fill="none" stroke="#63b8ff" d="M645.19,-155.32C567.97,-143.97 426.76,-119.68 311.38,-80.25 304.87,-78.03 298.21,-75.41 291.64,-72.61"/>
<polygon fill="none" stroke="#63b8ff" points="644.66,-158.78 655.06,-156.75 645.67,-151.86 644.66,-158.78"/>

</g>
</g>
<!-- Node4 -->
<g id="Node000004" class="node">
<title>Node4</title>
<g id="a_Node000004">
<rect fill="#444477" stroke="none" width="128" height="65" x="320.38" y="-72.62" rx="10" ry="10" />
<text fill="white" text-anchor="start" x="324.38" y="-59.12" font-family="Helvetica,sans-Serif" font-size="10.00">core::InitialiseEventHandler</text>
<text fill="white" text-anchor="start" x="382.88" y="-43.88" font-family="Helvetica,sans-Serif" font-size="10.00"> </text>
<text fill="white" text-anchor="start" x="326.56" y="-28.62" font-family="Helvetica,sans-Serif" font-size="10.00">+</text>
<text fill="white" text-anchor="start" x="338.75" y="-28.62" font-family="Helvetica,sans-Serif" font-size="10.00">InitialiseEventHandler()</text>
<text fill="white" text-anchor="start" x="326.56" y="-13.38" font-family="Helvetica,sans-Serif" font-size="10.00">+</text>
<text fill="white" text-anchor="start" x="338.75" y="-13.38" font-family="Helvetica,sans-Serif" font-size="10.00">Fire()</text>
<polygon fill="#666666" stroke="#666666" points="320.38,-55.38 320.38,-55.38 448.38,-55.38 448.38,-55.38 320.38,-55.38"/>
<polygon fill="#666666" stroke="#666666" points="320.38,-40.12 320.38,-40.12 448.38,-40.12 448.38,-40.12 320.38,-40.12"/>

</g>
</g>
<!-- Node1&#45;&gt;Node4 -->
<g id="edge3_Node000001_Node000004" class="edge">
<title>Node1&#45;&gt;Node4</title>
<g id="a_edge3_Node000001_Node000004">
<path fill="none" stroke="#63b8ff" d="M645.85,-146.84C595.54,-131.76 520.38,-107.55 457.38,-80.25 451.97,-77.91 446.42,-75.31 440.91,-72.6"/>
<polygon fill="none" stroke="#63b8ff" points="644.79,-150.17 655.37,-149.66 646.78,-143.46 644.79,-150.17"/>

</g>
</g>
<!-- Node5 -->
<g id="Node000005" class="node">
<title>Node5</title>
<g id="a_Node000005">
<rect fill="#444477" stroke="none" width="150" height="65" x="466.12" y="-72.62" rx="10" ry="10" />
<text fill="white" text-anchor="start" x="470.12" y="-59.12" font-family="Helvetica,sans-Serif" font-size="10.00">core::MobGenerateEventHandler</text>
<text fill="white" text-anchor="start" x="539.88" y="-43.88" font-family="Helvetica,sans-Serif" font-size="10.00"> </text>
<text fill="white" text-anchor="start" x="472.31" y="-28.62" font-family="Helvetica,sans-Serif" font-size="10.00">+</text>
<text fill="white" text-anchor="start" x="484.5" y="-28.62" font-family="Helvetica,sans-Serif" font-size="10.00">MobGenerateEventHandler()</text>
<text fill="white" text-anchor="start" x="472.31" y="-13.38" font-family="Helvetica,sans-Serif" font-size="10.00">+</text>
<text fill="white" text-anchor="start" x="484.5" y="-13.38" font-family="Helvetica,sans-Serif" font-size="10.00">Fire()</text>
<polygon fill="#666666" stroke="#666666" points="466.12,-55.38 466.12,-55.38 616.62,-55.38 616.62,-55.38 466.12,-55.38"/>
<polygon fill="#666666" stroke="#666666" points="466.12,-40.12 466.12,-40.12 616.62,-40.12 616.62,-40.12 466.12,-40.12"/>

</g>
</g>
<!-- Node1&#45;&gt;Node5 -->
<g id="edge4_Node000001_Node000005" class="edge">
<title>Node1&#45;&gt;Node5</title>
<g id="a_edge4_Node000001_Node000005">
<path fill="none" stroke="#63b8ff" d="M647.75,-121.65C626.5,-105.57 602.57,-87.45 582.79,-72.48"/>
<polygon fill="none" stroke="#63b8ff" points="645.38,-124.24 655.46,-127.49 649.6,-118.66 645.38,-124.24"/>

</g>
</g>
<!-- Node6 -->
<g id="Node000006" class="node">
<title>Node6</title>
<g id="a_Node000006">
<rect fill="#444477" stroke="none" width="135" height="65" x="635" y="-72.62" rx="10" ry="10" />
<text fill="white" text-anchor="start" x="639" y="-59.12" font-family="Helvetica,sans-Serif" font-size="10.00">core::MobMoveEventHandler</text>
<text fill="white" text-anchor="start" x="700.88" y="-43.88" font-family="Helvetica,sans-Serif" font-size="10.00"> </text>
<text fill="white" text-anchor="start" x="641.19" y="-28.62" font-family="Helvetica,sans-Serif" font-size="10.00">+</text>
<text fill="white" text-anchor="start" x="653.38" y="-28.62" font-family="Helvetica,sans-Serif" font-size="10.00">MobMoveEventHandler()</text>
<text fill="white" text-anchor="start" x="641.19" y="-13.38" font-family="Helvetica,sans-Serif" font-size="10.00">+</text>
<text fill="white" text-anchor="start" x="653.38" y="-13.38" font-family="Helvetica,sans-Serif" font-size="10.00">Fire()</text>
<polygon fill="#666666" stroke="#666666" points="635,-55.38 635,-55.38 769.75,-55.38 769.75,-55.38 635,-55.38"/>
<polygon fill="#666666" stroke="#666666" points="635,-40.12 635,-40.12 769.75,-40.12 769.75,-40.12 635,-40.12"/>

</g>
</g>
<!-- Node1&#45;&gt;Node6 -->
<g id="edge5_Node000001_Node000006" class="edge">
<title>Node1&#45;&gt;Node6</title>
<g id="a_edge5_Node000001_Node000006">
<path fill="none" stroke="#63b8ff" d="M702.38,-105.31C702.38,-93.93 702.38,-82.4 702.38,-72.32"/>
<polygon fill="none" stroke="#63b8ff" points="698.88,-105.06 702.38,-115.06 705.88,-105.06 698.88,-105.06"/>

</g>
</g>
<!-- Node7 -->
<g id="Node000007" class="node">
<title>Node7</title>
<g id="a_Node000007">
<rect fill="#444477" stroke="none" width="144" height="80" x="787.5" y="-80.25" rx="10" ry="10" />
<text fill="white" text-anchor="start" x="791.5" y="-66.75" font-family="Helvetica,sans-Serif" font-size="10.00">core::PlayerMoveEventHandler</text>
<text fill="white" text-anchor="start" x="857.88" y="-51.5" font-family="Helvetica,sans-Serif" font-size="10.00"> </text>
<text fill="white" text-anchor="start" x="793.69" y="-36.25" font-family="Helvetica,sans-Serif" font-size="10.00">+</text>
<text fill="white" text-anchor="start" x="805.88" y="-36.25" font-family="Helvetica,sans-Serif" font-size="10.00">PlayerMoveEventHandler()</text>
<text fill="white" text-anchor="start" x="793.69" y="-21" font-family="Helvetica,sans-Serif" font-size="10.00">+</text>
<text fill="white" text-anchor="start" x="805.88" y="-21" font-family="Helvetica,sans-Serif" font-size="10.00">SetDirection()</text>
<text fill="white" text-anchor="start" x="793.69" y="-5.75" font-family="Helvetica,sans-Serif" font-size="10.00">+</text>
<text fill="white" text-anchor="start" x="805.88" y="-5.75" font-family="Helvetica,sans-Serif" font-size="10.00">Fire()</text>
<polygon fill="#666666" stroke="#666666" points="787.5,-63 787.5,-63 931.25,-63 931.25,-63 787.5,-63"/>
<polygon fill="#666666" stroke="#666666" points="787.5,-47.75 787.5,-47.75 931.25,-47.75 931.25,-47.75 787.5,-47.75"/>

</g>
</g>
<!-- Node1&#45;&gt;Node7 -->
<g id="edge6_Node000001_Node000007" class="edge">
<title>Node1&#45;&gt;Node7</title>
<g id="a_edge6_Node000001_Node000007">
<path fill="none" stroke="#63b8ff" d="M756.9,-120.67C773.85,-107.52 792.44,-93.08 809.09,-80.16"/>
<polygon fill="none" stroke="#63b8ff" points="755.16,-117.6 749.4,-126.49 759.45,-123.13 755.16,-117.6"/>

</g>
</g>
<!-- Node8 -->
<g id="Node000008" class="node">
<title>Node8</title>
<g id="a_Node000008">
<rect fill="#444477" stroke="none" width="145" height="80" x="949.75" y="-80.25" rx="10" ry="10" />
<text fill="white" text-anchor="start" x="953.75" y="-66.75" font-family="Helvetica,sans-Serif" font-size="10.00">core::PlayerShootEventHandler</text>
<text fill="white" text-anchor="start" x="1020.88" y="-51.5" font-family="Helvetica,sans-Serif" font-size="10.00"> </text>
<text fill="white" text-anchor="start" x="955.94" y="-36.25" font-family="Helvetica,sans-Serif" font-size="10.00">+</text>
<text fill="white" text-anchor="start" x="968.12" y="-36.25" font-family="Helvetica,sans-Serif" font-size="10.00">PlayerShootEventHandler()</text>
<text fill="white" text-anchor="start" x="955.94" y="-21" font-family="Helvetica,sans-Serif" font-size="10.00">+</text>
<text fill="white" text-anchor="start" x="968.12" y="-21" font-family="Helvetica,sans-Serif" font-size="10.00">Fire()</text>
<text fill="white" text-anchor="start" x="955.94" y="-5.75" font-family="Helvetica,sans-Serif" font-size="10.00">+</text>
<text fill="white" text-anchor="start" x="968.12" y="-5.75" font-family="Helvetica,sans-Serif" font-size="10.00">SetBulletDirection()</text>
<polygon fill="#666666" stroke="#666666" points="949.75,-63 949.75,-63 1095,-63 1095,-63 949.75,-63"/>
<polygon fill="#666666" stroke="#666666" points="949.75,-47.75 949.75,-47.75 1095,-47.75 1095,-47.75 949.75,-47.75"/>

</g>
</g>
<!-- Node1&#45;&gt;Node8 -->
<g id="edge7_Node000001_Node000008" class="edge">
<title>Node1&#45;&gt;Node8</title>
<g id="a_edge7_Node000001_Node000008">
<path fill="none" stroke="#63b8ff" d="M759.05,-145.25C807.68,-129.56 879.38,-105.32 940.38,-80.25 943.58,-78.93 946.85,-77.55 950.13,-76.13"/>
<polygon fill="none" stroke="#63b8ff" points="758.01,-141.91 749.56,-148.3 760.15,-148.57 758.01,-141.91"/>

</g>
</g>
<!-- Node9 -->
<g id="Node000009" class="node">
<title>Node9</title>
<g id="a_Node000009">
<rect fill="#444477" stroke="none" width="110" height="80" x="1113.38" y="-80.25" rx="10" ry="10" />
<text fill="white" text-anchor="start" x="1117.38" y="-66.75" font-family="Helvetica,sans-Serif" font-size="10.00">core::RunEventHandler</text>
<text fill="white" text-anchor="start" x="1166.88" y="-51.5" font-family="Helvetica,sans-Serif" font-size="10.00"> </text>
<text fill="white" text-anchor="start" x="1118.06" y="-36.25" font-family="Helvetica,sans-Serif" font-size="10.00">+</text>
<text fill="white" text-anchor="start" x="1128.75" y="-36.25" font-family="Helvetica,sans-Serif" font-size="10.00">RunEventHandler()</text>
<text fill="white" text-anchor="start" x="1118.06" y="-21" font-family="Helvetica,sans-Serif" font-size="10.00">+</text>
<text fill="white" text-anchor="start" x="1128.75" y="-21" font-family="Helvetica,sans-Serif" font-size="10.00">~RunEventHandler()</text>
<text fill="white" text-anchor="start" x="1118.06" y="-5.75" font-family="Helvetica,sans-Serif" font-size="10.00">+</text>
<text fill="white" text-anchor="start" x="1128.75" y="-5.75" font-family="Helvetica,sans-Serif" font-size="10.00">Fire()</text>
<polygon fill="#666666" stroke="#666666" points="1113.38,-63 1113.38,-63 1223.38,-63 1223.38,-63 1113.38,-63"/>
<polygon fill="#666666" stroke="#666666" points="1113.38,-47.75 1113.38,-47.75 1223.38,-47.75 1223.38,-47.75 1113.38,-47.75"/>

</g>
</g>
<!-- Node1&#45;&gt;Node9 -->
<g id="edge8_Node000001_Node000009" class="edge">
<title>Node1&#45;&gt;Node9</title>
<g id="a_edge8_Node000001_Node000009">
<path fill="none" stroke="#63b8ff" d="M759.38,-157.53C838.93,-148.51 986.71,-126.68 1104.38,-80.25 1107.4,-79.05 1110.45,-77.72 1113.48,-76.28"/>
<polygon fill="none" stroke="#63b8ff" points="759.21,-154.03 749.65,-158.6 759.98,-160.98 759.21,-154.03"/>

</g>
</g>
<!-- Node10 -->
<g id="Node000010" class="node">
<title>Node10</title>
<g id="a_Node000010">
<rect fill="#444477" stroke="none" width="110" height="80" x="1241" y="-80.25" rx="10" ry="10" />
<text fill="white" text-anchor="start" x="1245" y="-66.75" font-family="Helvetica,sans-Serif" font-size="10.00">core::TickEventHandler</text>
<text fill="white" text-anchor="start" x="1294.88" y="-51.5" font-family="Helvetica,sans-Serif" font-size="10.00"> </text>
<text fill="white" text-anchor="start" x="1245.69" y="-36.25" font-family="Helvetica,sans-Serif" font-size="10.00">+</text>
<text fill="white" text-anchor="start" x="1256.38" y="-36.25" font-family="Helvetica,sans-Serif" font-size="10.00">TickEventHandler()</text>
<text fill="white" text-anchor="start" x="1245.69" y="-21" font-family="Helvetica,sans-Serif" font-size="10.00">+</text>
<text fill="white" text-anchor="start" x="1256.38" y="-21" font-family="Helvetica,sans-Serif" font-size="10.00">~TickEventHandler()</text>
<text fill="white" text-anchor="start" x="1245.69" y="-5.75" font-family="Helvetica,sans-Serif" font-size="10.00">+</text>
<text fill="white" text-anchor="start" x="1256.38" y="-5.75" font-family="Helvetica,sans-Serif" font-size="10.00">Fire()</text>
<polygon fill="#666666" stroke="#666666" points="1241,-63 1241,-63 1351.75,-63 1351.75,-63 1241,-63"/>
<polygon fill="#666666" stroke="#666666" points="1241,-47.75 1241,-47.75 1351.75,-47.75 1351.75,-47.75 1241,-47.75"/>

</g>
</g>
<!-- Node1&#45;&gt;Node10 -->
<g id="edge9_Node000001_Node000010" class="edge">
<title>Node1&#45;&gt;Node10</title>
<g id="a_edge9_Node000001_Node000010">
<path fill="none" stroke="#63b8ff" d="M759.44,-161.38C858.57,-156.98 1067.76,-140.67 1232.38,-80.25 1235.31,-79.17 1238.26,-77.95 1241.19,-76.63"/>
<polygon fill="none" stroke="#63b8ff" points="759.55,-157.87 749.7,-161.78 759.84,-164.86 759.55,-157.87"/>

</g>
</g>
</g>
</svg>
