<?xml version="1.0" encoding="UTF-8" standalone="no"?>
<!DOCTYPE svg PUBLIC "-//W3C//DTD SVG 1.1//EN"
 "http://www.w3.org/Graphics/SVG/1.1/DTD/svg11.dtd">
<!-- Generated by graphviz version 12.2.1 (20241206.2353)
 -->
<!-- Title: core::Entity Pages: 1 -->
<svg width="837pt" height="504pt"
 viewBox="0.00 0.00 836.88 503.75" xmlns="http://www.w3.org/2000/svg" xmlns:xlink="http://www.w3.org/1999/xlink">
<g id="graph0" class="graph" transform="scale(1 1) rotate(0) translate(4 499.75)">
<title>core::Entity</title>
<!-- Node1 -->
<g id="Node000001" class="node">
<title>Node1</title>
<g id="a_Node000001">
<rect fill="#444477" stroke="none" width="100" height="170" x="512.5" y="-495.75" rx="10" ry="10" />
<text fill="white" text-anchor="start" x="537.25" y="-482.25" font-family="Helvetica,sans-Serif" font-size="10.00">core::Entity</text>
<text fill="white" text-anchor="start" x="516.5" y="-467" font-family="Helvetica,sans-Serif" font-size="10.00">+</text>
<text fill="white" text-anchor="start" x="526.5" y="-467" font-family="Helvetica,sans-Serif" font-size="10.00">Id</text>
<text fill="white" text-anchor="start" x="516.88" y="-451.75" font-family="Helvetica,sans-Serif" font-size="10.00">#</text>
<text fill="white" text-anchor="start" x="526.5" y="-451.75" font-family="Helvetica,sans-Serif" font-size="10.00">arena</text>
<text fill="white" text-anchor="start" x="516.88" y="-436.5" font-family="Helvetica,sans-Serif" font-size="10.00">#</text>
<text fill="white" text-anchor="start" x="526.5" y="-436.5" font-family="Helvetica,sans-Serif" font-size="10.00">renderOption</text>
<text fill="white" text-anchor="start" x="516.5" y="-421.25" font-family="Helvetica,sans-Serif" font-size="10.00">+</text>
<text fill="white" text-anchor="start" x="526.5" y="-421.25" font-family="Helvetica,sans-Serif" font-size="10.00">Entity()</text>
<text fill="white" text-anchor="start" x="516.5" y="-406" font-family="Helvetica,sans-Serif" font-size="10.00">+</text>
<text fill="white" text-anchor="start" x="526.5" y="-406" font-family="Helvetica,sans-Serif" font-size="10.00">~Entity()</text>
<text fill="white" text-anchor="start" x="516.5" y="-390.75" font-family="Helvetica,sans-Serif" font-size="10.00">+</text>
<text fill="white" text-anchor="start" x="526.5" y="-390.75" font-family="Helvetica,sans-Serif" font-size="10.00">GetPosition()</text>
<text fill="white" text-anchor="start" x="516.5" y="-375.5" font-family="Helvetica,sans-Serif" font-size="10.00">+</text>
<text fill="white" text-anchor="start" x="526.5" y="-375.5" font-family="Helvetica,sans-Serif" font-size="10.00">SetPosition()</text>
<text fill="white" text-anchor="start" x="516.5" y="-360.25" font-family="Helvetica,sans-Serif" font-size="10.00">+</text>
<text fill="white" text-anchor="start" x="526.5" y="-360.25" font-family="Helvetica,sans-Serif" font-size="10.00">Move()</text>
<text fill="white" text-anchor="start" x="516.5" y="-345" font-family="Helvetica,sans-Serif" font-size="10.00">+</text>
<text fill="white" text-anchor="start" x="526.5" y="-345" font-family="Helvetica,sans-Serif" font-size="10.00">GetRenderOption()</text>
<text fill="white" text-anchor="start" x="516.5" y="-329.75" font-family="Helvetica,sans-Serif" font-size="10.00">+</text>
<text fill="white" text-anchor="start" x="526.5" y="-329.75" font-family="Helvetica,sans-Serif" font-size="10.00">IsType()</text>
<polygon fill="#666666" stroke="#666666" points="512.5,-478.5 512.5,-478.5 612.25,-478.5 612.25,-478.5 512.5,-478.5"/>
<polygon fill="#666666" stroke="#666666" points="512.5,-432.75 512.5,-432.75 524.5,-432.75 524.5,-432.75 512.5,-432.75"/>
<polygon fill="#666666" stroke="#666666" points="524.5,-432.75 524.5,-432.75 612.25,-432.75 612.25,-432.75 524.5,-432.75"/>

</g>
</g>
<!-- Node2 -->
<g id="Node000002" class="node">
<title>Node2</title>
<g id="a_Node000002">
<rect fill="#444477" stroke="none" width="95" height="80" x="41.25" y="-242.25" rx="10" ry="10" />
<text fill="white" text-anchor="start" x="45.25" y="-228.75" font-family="Helvetica,sans-Serif" font-size="10.00">core::AbstractBlock</text>
<text fill="white" text-anchor="start" x="86.88" y="-213.5" font-family="Helvetica,sans-Serif" font-size="10.00"> </text>
<text fill="white" text-anchor="start" x="45.94" y="-198.25" font-family="Helvetica,sans-Serif" font-size="10.00">+</text>
<text fill="white" text-anchor="start" x="56.62" y="-198.25" font-family="Helvetica,sans-Serif" font-size="10.00">AbstractBlock()</text>
<text fill="white" text-anchor="start" x="45.94" y="-183" font-family="Helvetica,sans-Serif" font-size="10.00">+</text>
<text fill="white" text-anchor="start" x="56.62" y="-183" font-family="Helvetica,sans-Serif" font-size="10.00">~AbstractBlock()</text>
<text fill="white" text-anchor="start" x="45.94" y="-167.75" font-family="Helvetica,sans-Serif" font-size="10.00">+</text>
<text fill="white" text-anchor="start" x="56.62" y="-167.75" font-family="Helvetica,sans-Serif" font-size="10.00">Move()</text>
<polygon fill="#666666" stroke="#666666" points="41.25,-225 41.25,-225 135.5,-225 135.5,-225 41.25,-225"/>
<polygon fill="#666666" stroke="#666666" points="41.25,-209.75 41.25,-209.75 135.5,-209.75 135.5,-209.75 41.25,-209.75"/>

</g>
</g>
<!-- Node1&#45;&gt;Node2 -->
<g id="edge1_Node000001_Node000002" class="edge">
<title>Node1&#45;&gt;Node2</title>
<g id="a_edge1_Node000001_Node000002">
<path fill="none" stroke="#63b8ff" d="M502.05,-388.24C437.97,-365.74 334.14,-327.62 247.38,-288 208.81,-270.39 166.52,-247.64 135.26,-230.13"/>
<polygon fill="none" stroke="#63b8ff" points="500.74,-391.49 511.33,-391.49 503.05,-384.88 500.74,-391.49"/>

</g>
</g>
<!-- Node5 -->
<g id="Node000005" class="node">
<title>Node5</title>
<g id="a_Node000005">
<rect fill="#444477" stroke="none" width="115.25" height="110.75" x="256.75" y="-257.5" rx="10" ry="10" />
<text fill="white" text-anchor="start" x="260.75" y="-244" font-family="Helvetica,sans-Serif" font-size="10.00">core::AbstractCollectible</text>
<text fill="white" text-anchor="start" x="263.31" y="-228.75" font-family="Helvetica,sans-Serif" font-size="10.00">#</text>
<text fill="white" text-anchor="start" x="275.12" y="-228.75" font-family="Helvetica,sans-Serif" font-size="10.00">pickedUp</text>
<text fill="white" text-anchor="start" x="262.94" y="-213.5" font-family="Helvetica,sans-Serif" font-size="10.00">+</text>
<text fill="white" text-anchor="start" x="275.12" y="-213.5" font-family="Helvetica,sans-Serif" font-size="10.00">AbstractCollectible()</text>
<text fill="white" text-anchor="start" x="262.94" y="-198.25" font-family="Helvetica,sans-Serif" font-size="10.00">+</text>
<text fill="white" text-anchor="start" x="275.12" y="-198.25" font-family="Helvetica,sans-Serif" font-size="10.00">PickUp()</text>
<text fill="white" text-anchor="start" x="262.94" y="-183" font-family="Helvetica,sans-Serif" font-size="10.00">+</text>
<text fill="white" text-anchor="start" x="275.12" y="-183" font-family="Helvetica,sans-Serif" font-size="10.00">RefreshStatus()</text>
<text fill="white" text-anchor="start" x="262.94" y="-167.75" font-family="Helvetica,sans-Serif" font-size="10.00">+</text>
<text fill="white" text-anchor="start" x="275.12" y="-167.75" font-family="Helvetica,sans-Serif" font-size="10.00">IsInvalid()</text>
<text fill="white" text-anchor="start" x="262.94" y="-152.5" font-family="Helvetica,sans-Serif" font-size="10.00">+</text>
<text fill="white" text-anchor="start" x="275.12" y="-152.5" font-family="Helvetica,sans-Serif" font-size="10.00">Move()</text>
<polygon fill="#666666" stroke="#666666" points="256.75,-240.25 256.75,-240.25 372,-240.25 372,-240.25 256.75,-240.25"/>
<polygon fill="#666666" stroke="#666666" points="256.75,-225 256.75,-225 273.12,-225 273.12,-225 256.75,-225"/>
<polygon fill="#666666" stroke="#666666" points="273.12,-225 273.12,-225 372,-225 372,-225 273.12,-225"/>

</g>
</g>
<!-- Node1&#45;&gt;Node5 -->
<g id="edge4_Node000001_Node000005" class="edge">
<title>Node1&#45;&gt;Node5</title>
<g id="a_edge4_Node000001_Node000005">
<path fill="none" stroke="#63b8ff" d="M503.96,-360.41C464.04,-327.29 411.38,-283.61 371.7,-250.68"/>
<polygon fill="none" stroke="#63b8ff" points="501.69,-363.08 511.62,-366.77 506.16,-357.69 501.69,-363.08"/>

</g>
</g>
<!-- Node9 -->
<g id="Node000009" class="node">
<title>Node9</title>
<g id="a_Node000009">
<rect fill="#444477" stroke="none" width="95" height="171.75" x="515.12" y="-288" rx="10" ry="10" />
<text fill="white" text-anchor="start" x="522.25" y="-274.5" font-family="Helvetica,sans-Serif" font-size="10.00">core::AbstractMob</text>
<text fill="white" text-anchor="start" x="519.12" y="-259.25" font-family="Helvetica,sans-Serif" font-size="10.00">+</text>
<text fill="white" text-anchor="start" x="529.12" y="-259.25" font-family="Helvetica,sans-Serif" font-size="10.00">Path</text>
<text fill="white" text-anchor="start" x="519.12" y="-244" font-family="Helvetica,sans-Serif" font-size="10.00">+</text>
<text fill="white" text-anchor="start" x="529.12" y="-244" font-family="Helvetica,sans-Serif" font-size="10.00">AbstractMob()</text>
<text fill="white" text-anchor="start" x="519.12" y="-228.75" font-family="Helvetica,sans-Serif" font-size="10.00">+</text>
<text fill="white" text-anchor="start" x="529.12" y="-228.75" font-family="Helvetica,sans-Serif" font-size="10.00">~AbstractMob()</text>
<text fill="white" text-anchor="start" x="519.12" y="-213.5" font-family="Helvetica,sans-Serif" font-size="10.00">+</text>
<text fill="white" text-anchor="start" x="529.12" y="-213.5" font-family="Helvetica,sans-Serif" font-size="10.00">GetHP()</text>
<text fill="white" text-anchor="start" x="519.12" y="-198.25" font-family="Helvetica,sans-Serif" font-size="10.00">+</text>
<text fill="white" text-anchor="start" x="529.12" y="-198.25" font-family="Helvetica,sans-Serif" font-size="10.00">TakeDamage()</text>
<text fill="white" text-anchor="start" x="519.12" y="-183" font-family="Helvetica,sans-Serif" font-size="10.00">+</text>
<text fill="white" text-anchor="start" x="529.12" y="-183" font-family="Helvetica,sans-Serif" font-size="10.00">ChangeDamage()</text>
<text fill="white" text-anchor="start" x="519.12" y="-167.75" font-family="Helvetica,sans-Serif" font-size="10.00">+</text>
<text fill="white" text-anchor="start" x="529.12" y="-167.75" font-family="Helvetica,sans-Serif" font-size="10.00">Move()</text>
<text fill="white" text-anchor="start" x="519.12" y="-152.5" font-family="Helvetica,sans-Serif" font-size="10.00">+</text>
<text fill="white" text-anchor="start" x="529.12" y="-152.5" font-family="Helvetica,sans-Serif" font-size="10.00">Move()</text>
<text fill="white" text-anchor="start" x="519.12" y="-137.25" font-family="Helvetica,sans-Serif" font-size="10.00">+</text>
<text fill="white" text-anchor="start" x="529.12" y="-137.25" font-family="Helvetica,sans-Serif" font-size="10.00">GetKillScore()</text>
<text fill="white" text-anchor="start" x="519.12" y="-122" font-family="Helvetica,sans-Serif" font-size="10.00">+</text>
<text fill="white" text-anchor="start" x="529.12" y="-122" font-family="Helvetica,sans-Serif" font-size="10.00">ApplyShield()</text>
<polygon fill="#666666" stroke="#666666" points="515.12,-270.75 515.12,-270.75 609.62,-270.75 609.62,-270.75 515.12,-270.75"/>
<polygon fill="#666666" stroke="#666666" points="515.12,-255.5 515.12,-255.5 527.12,-255.5 527.12,-255.5 515.12,-255.5"/>
<polygon fill="#666666" stroke="#666666" points="527.12,-255.5 527.12,-255.5 609.62,-255.5 609.62,-255.5 527.12,-255.5"/>

</g>
</g>
<!-- Node1&#45;&gt;Node9 -->
<g id="edge8_Node000001_Node000009" class="edge">
<title>Node1&#45;&gt;Node9</title>
<g id="a_edge8_Node000001_Node000009">
<path fill="none" stroke="#63b8ff" d="M562.38,-312.72C562.38,-304.4 562.38,-296.02 562.38,-287.8"/>
<polygon fill="none" stroke="#63b8ff" points="558.88,-312.49 562.38,-322.49 565.88,-312.49 558.88,-312.49"/>

</g>
</g>
<!-- Node15 -->
<g id="Node000015" class="node">
<title>Node15</title>
<g id="a_Node000015">
<rect fill="#444477" stroke="none" width="94.5" height="141.25" x="628.12" y="-272.75" rx="10" ry="10" />
<text fill="white" text-anchor="start" x="649.12" y="-259.25" font-family="Helvetica,sans-Serif" font-size="10.00">core::Player</text>
<text fill="white" text-anchor="start" x="673.88" y="-244" font-family="Helvetica,sans-Serif" font-size="10.00"> </text>
<text fill="white" text-anchor="start" x="632.12" y="-228.75" font-family="Helvetica,sans-Serif" font-size="10.00">+</text>
<text fill="white" text-anchor="start" x="642.12" y="-228.75" font-family="Helvetica,sans-Serif" font-size="10.00">Player()</text>
<text fill="white" text-anchor="start" x="632.12" y="-213.5" font-family="Helvetica,sans-Serif" font-size="10.00">+</text>
<text fill="white" text-anchor="start" x="642.12" y="-213.5" font-family="Helvetica,sans-Serif" font-size="10.00">TakeDamage()</text>
<text fill="white" text-anchor="start" x="632.12" y="-198.25" font-family="Helvetica,sans-Serif" font-size="10.00">+</text>
<text fill="white" text-anchor="start" x="642.12" y="-198.25" font-family="Helvetica,sans-Serif" font-size="10.00">ChangeDamage()</text>
<text fill="white" text-anchor="start" x="632.12" y="-183" font-family="Helvetica,sans-Serif" font-size="10.00">+</text>
<text fill="white" text-anchor="start" x="642.12" y="-183" font-family="Helvetica,sans-Serif" font-size="10.00">GetDamage()</text>
<text fill="white" text-anchor="start" x="632.12" y="-167.75" font-family="Helvetica,sans-Serif" font-size="10.00">+</text>
<text fill="white" text-anchor="start" x="642.12" y="-167.75" font-family="Helvetica,sans-Serif" font-size="10.00">Move()</text>
<text fill="white" text-anchor="start" x="632.12" y="-152.5" font-family="Helvetica,sans-Serif" font-size="10.00">+</text>
<text fill="white" text-anchor="start" x="642.12" y="-152.5" font-family="Helvetica,sans-Serif" font-size="10.00">GetHP()</text>
<text fill="white" text-anchor="start" x="632.12" y="-137.25" font-family="Helvetica,sans-Serif" font-size="10.00">+</text>
<text fill="white" text-anchor="start" x="642.12" y="-137.25" font-family="Helvetica,sans-Serif" font-size="10.00">ApplyShield()</text>
<polygon fill="#666666" stroke="#666666" points="628.12,-255.5 628.12,-255.5 722.62,-255.5 722.62,-255.5 628.12,-255.5"/>
<polygon fill="#666666" stroke="#666666" points="628.12,-240.25 628.12,-240.25 722.62,-240.25 722.62,-240.25 628.12,-240.25"/>

</g>
</g>
<!-- Node1&#45;&gt;Node15 -->
<g id="edge14_Node000001_Node000015" class="edge">
<title>Node1&#45;&gt;Node15</title>
<g id="a_edge14_Node000001_Node000015">
<path fill="none" stroke="#63b8ff" d="M614.32,-314.29C622.06,-300.2 629.92,-285.89 637.3,-272.45"/>
<polygon fill="none" stroke="#63b8ff" points="611.46,-312.22 609.72,-322.67 617.6,-315.59 611.46,-312.22"/>

</g>
</g>
<!-- Node16 -->
<g id="Node000016" class="node">
<title>Node16</title>
<g id="a_Node000016">
<rect fill="#444477" stroke="none" width="88" height="156.5" x="740.75" y="-280.38" rx="10" ry="10" />
<text fill="white" text-anchor="start" x="744.75" y="-266.88" font-family="Helvetica,sans-Serif" font-size="10.00">core::PlayerBullet</text>
<text fill="white" text-anchor="start" x="781.88" y="-251.62" font-family="Helvetica,sans-Serif" font-size="10.00"> </text>
<text fill="white" text-anchor="start" x="746.38" y="-236.38" font-family="Helvetica,sans-Serif" font-size="10.00">+</text>
<text fill="white" text-anchor="start" x="758" y="-236.38" font-family="Helvetica,sans-Serif" font-size="10.00">PlayerBullet()</text>
<text fill="white" text-anchor="start" x="746.38" y="-221.12" font-family="Helvetica,sans-Serif" font-size="10.00">+</text>
<text fill="white" text-anchor="start" x="758" y="-221.12" font-family="Helvetica,sans-Serif" font-size="10.00">Move()</text>
<text fill="white" text-anchor="start" x="746.38" y="-205.88" font-family="Helvetica,sans-Serif" font-size="10.00">+</text>
<text fill="white" text-anchor="start" x="758" y="-205.88" font-family="Helvetica,sans-Serif" font-size="10.00">Move()</text>
<text fill="white" text-anchor="start" x="746.38" y="-190.62" font-family="Helvetica,sans-Serif" font-size="10.00">+</text>
<text fill="white" text-anchor="start" x="758" y="-190.62" font-family="Helvetica,sans-Serif" font-size="10.00">GetDamage()</text>
<text fill="white" text-anchor="start" x="746.38" y="-175.38" font-family="Helvetica,sans-Serif" font-size="10.00">+</text>
<text fill="white" text-anchor="start" x="758" y="-175.38" font-family="Helvetica,sans-Serif" font-size="10.00">GetDirection()</text>
<text fill="white" text-anchor="start" x="746.38" y="-160.12" font-family="Helvetica,sans-Serif" font-size="10.00">+</text>
<text fill="white" text-anchor="start" x="758" y="-160.12" font-family="Helvetica,sans-Serif" font-size="10.00">TryShoot()</text>
<text fill="white" text-anchor="start" x="746.38" y="-144.88" font-family="Helvetica,sans-Serif" font-size="10.00">+</text>
<text fill="white" text-anchor="start" x="758" y="-144.88" font-family="Helvetica,sans-Serif" font-size="10.00">IsExploded()</text>
<text fill="white" text-anchor="start" x="746.38" y="-129.62" font-family="Helvetica,sans-Serif" font-size="10.00">+</text>
<text fill="white" text-anchor="start" x="758" y="-129.62" font-family="Helvetica,sans-Serif" font-size="10.00">IsOnArena()</text>
<polygon fill="#666666" stroke="#666666" points="740.75,-263.12 740.75,-263.12 826,-263.12 826,-263.12 740.75,-263.12"/>
<polygon fill="#666666" stroke="#666666" points="740.75,-247.88 740.75,-247.88 826,-247.88 826,-247.88 740.75,-247.88"/>

</g>
</g>
<!-- Node1&#45;&gt;Node16 -->
<g id="edge15_Node000001_Node000016" class="edge">
<title>Node1&#45;&gt;Node16</title>
<g id="a_edge15_Node000001_Node000016">
<path fill="none" stroke="#63b8ff" d="M621.47,-374.92C656.17,-353.07 699.35,-322.39 731.38,-288 734.67,-284.46 737.87,-280.68 740.95,-276.75"/>
<polygon fill="none" stroke="#63b8ff" points="619.86,-371.8 613.21,-380.05 623.55,-377.75 619.86,-371.8"/>

</g>
</g>
<!-- Node3 -->
<g id="Node000003" class="node">
<title>Node3</title>
<g id="a_Node000003">
<rect fill="#444477" stroke="none" width="45" height="50" x="0" y="-65" rx="10" ry="10" />
<text fill="white" text-anchor="start" x="4" y="-51.5" font-family="Helvetica,sans-Serif" font-size="10.00">core::Air</text>
<text fill="white" text-anchor="start" x="20.88" y="-36.25" font-family="Helvetica,sans-Serif" font-size="10.00"> </text>
<text fill="white" text-anchor="start" x="6.19" y="-21" font-family="Helvetica,sans-Serif" font-size="10.00">+</text>
<text fill="white" text-anchor="start" x="18.38" y="-21" font-family="Helvetica,sans-Serif" font-size="10.00">Air()</text>
<polygon fill="#666666" stroke="#666666" points="0,-47.75 0,-47.75 44.75,-47.75 44.75,-47.75 0,-47.75"/>
<polygon fill="#666666" stroke="#666666" points="0,-32.5 0,-32.5 44.75,-32.5 44.75,-32.5 0,-32.5"/>

</g>
</g>
<!-- Node2&#45;&gt;Node3 -->
<g id="edge2_Node000002_Node000003" class="edge">
<title>Node2&#45;&gt;Node3</title>
<g id="a_edge2_Node000002_Node000003">
<path fill="none" stroke="#63b8ff" d="M68.12,-152.02C56.14,-122.97 41.51,-87.51 32.07,-64.63"/>
<polygon fill="none" stroke="#63b8ff" points="64.77,-153.08 71.82,-160.99 71.24,-150.42 64.77,-153.08"/>

</g>
</g>
<!-- Node4 -->
<g id="Node000004" class="node">
<title>Node4</title>
<g id="a_Node000004">
<rect fill="#444477" stroke="none" width="52.5" height="50" x="62.62" y="-65" rx="10" ry="10" />
<text fill="white" text-anchor="start" x="66.62" y="-51.5" font-family="Helvetica,sans-Serif" font-size="10.00">core::Wall</text>
<text fill="white" text-anchor="start" x="86.88" y="-36.25" font-family="Helvetica,sans-Serif" font-size="10.00"> </text>
<text fill="white" text-anchor="start" x="68.81" y="-21" font-family="Helvetica,sans-Serif" font-size="10.00">+</text>
<text fill="white" text-anchor="start" x="81" y="-21" font-family="Helvetica,sans-Serif" font-size="10.00">Wall()</text>
<polygon fill="#666666" stroke="#666666" points="62.62,-47.75 62.62,-47.75 114.12,-47.75 114.12,-47.75 62.62,-47.75"/>
<polygon fill="#666666" stroke="#666666" points="62.62,-32.5 62.62,-32.5 114.12,-32.5 114.12,-32.5 62.62,-32.5"/>

</g>
</g>
<!-- Node2&#45;&gt;Node4 -->
<g id="edge3_Node000002_Node000004" class="edge">
<title>Node2&#45;&gt;Node4</title>
<g id="a_edge3_Node000002_Node000004">
<path fill="none" stroke="#63b8ff" d="M88.38,-151.25C88.38,-122.35 88.38,-87.31 88.38,-64.63"/>
<polygon fill="none" stroke="#63b8ff" points="84.88,-150.88 88.38,-160.88 91.88,-150.88 84.88,-150.88"/>

</g>
</g>
<!-- Node6 -->
<g id="Node000006" class="node">
<title>Node6</title>
<g id="a_Node000006">
<rect fill="#444477" stroke="none" width="86" height="80" x="132" y="-80" rx="10" ry="10" />
<text fill="white" text-anchor="start" x="136" y="-66.75" font-family="Helvetica,sans-Serif" font-size="10.00">core::EnergyDrink</text>
<text fill="white" text-anchor="start" x="173.88" y="-51.5" font-family="Helvetica,sans-Serif" font-size="10.00"> </text>
<text fill="white" text-anchor="start" x="138.19" y="-36.25" font-family="Helvetica,sans-Serif" font-size="10.00">+</text>
<text fill="white" text-anchor="start" x="150.38" y="-36.25" font-family="Helvetica,sans-Serif" font-size="10.00">EnergyDrink()</text>
<text fill="white" text-anchor="start" x="138.19" y="-21" font-family="Helvetica,sans-Serif" font-size="10.00">+</text>
<text fill="white" text-anchor="start" x="150.38" y="-21" font-family="Helvetica,sans-Serif" font-size="10.00">GetHP()</text>
<text fill="white" text-anchor="start" x="138.19" y="-5.75" font-family="Helvetica,sans-Serif" font-size="10.00">+</text>
<text fill="white" text-anchor="start" x="150.38" y="-5.75" font-family="Helvetica,sans-Serif" font-size="10.00">PickUp()</text>
<polygon fill="#666666" stroke="#666666" points="132,-63 132,-63 218.75,-63 218.75,-63 132,-63"/>
<polygon fill="#666666" stroke="#666666" points="132,-47.75 132,-47.75 218.75,-47.75 218.75,-47.75 132,-47.75"/>

</g>
</g>
<!-- Node5&#45;&gt;Node6 -->
<g id="edge5_Node000005_Node000006" class="edge">
<title>Node5&#45;&gt;Node6</title>
<g id="a_edge5_Node000005_Node000006">
<path fill="none" stroke="#63b8ff" d="M259.83,-138.34C242.76,-118.69 224.42,-97.58 209.21,-80.07"/>
<polygon fill="none" stroke="#63b8ff" points="257.12,-140.56 266.32,-145.81 262.41,-135.97 257.12,-140.56"/>

</g>
</g>
<!-- Node7 -->
<g id="Node000007" class="node">
<title>Node7</title>
<g id="a_Node000007">
<rect fill="#444477" stroke="none" width="60" height="65" x="236.5" y="-72.62" rx="10" ry="10" />
<text fill="white" text-anchor="start" x="240.5" y="-59.12" font-family="Helvetica,sans-Serif" font-size="10.00">core::Shield</text>
<text fill="white" text-anchor="start" x="264.88" y="-43.88" font-family="Helvetica,sans-Serif" font-size="10.00"> </text>
<text fill="white" text-anchor="start" x="241.38" y="-28.62" font-family="Helvetica,sans-Serif" font-size="10.00">+</text>
<text fill="white" text-anchor="start" x="252.25" y="-28.62" font-family="Helvetica,sans-Serif" font-size="10.00">Shield()</text>
<text fill="white" text-anchor="start" x="241.38" y="-13.38" font-family="Helvetica,sans-Serif" font-size="10.00">+</text>
<text fill="white" text-anchor="start" x="252.25" y="-13.38" font-family="Helvetica,sans-Serif" font-size="10.00">PickUp()</text>
<polygon fill="#666666" stroke="#666666" points="236.5,-55.38 236.5,-55.38 296.25,-55.38 296.25,-55.38 236.5,-55.38"/>
<polygon fill="#666666" stroke="#666666" points="236.5,-40.12 236.5,-40.12 296.25,-40.12 296.25,-40.12 236.5,-40.12"/>

</g>
</g>
<!-- Node5&#45;&gt;Node7 -->
<g id="edge6_Node000005_Node000007" class="edge">
<title>Node5&#45;&gt;Node7</title>
<g id="a_edge6_Node000005_Node000007">
<path fill="none" stroke="#63b8ff" d="M294.83,-135.99C288.24,-114.01 281.18,-90.49 275.75,-72.37"/>
<polygon fill="none" stroke="#63b8ff" points="291.46,-136.93 297.69,-145.51 298.17,-134.92 291.46,-136.93"/>

</g>
</g>
<!-- Node8 -->
<g id="Node000008" class="node">
<title>Node8</title>
<g id="a_Node000008">
<rect fill="#444477" stroke="none" width="98" height="80" x="315" y="-80" rx="10" ry="10" />
<text fill="white" text-anchor="start" x="318.75" y="-66.75" font-family="Helvetica,sans-Serif" font-size="10.00">core::StrengthPotion</text>
<text fill="white" text-anchor="start" x="361.88" y="-51.5" font-family="Helvetica,sans-Serif" font-size="10.00"> </text>
<text fill="white" text-anchor="start" x="320.94" y="-36.25" font-family="Helvetica,sans-Serif" font-size="10.00">+</text>
<text fill="white" text-anchor="start" x="333.12" y="-36.25" font-family="Helvetica,sans-Serif" font-size="10.00">StrengthPotion()</text>
<text fill="white" text-anchor="start" x="320.94" y="-21" font-family="Helvetica,sans-Serif" font-size="10.00">+</text>
<text fill="white" text-anchor="start" x="333.12" y="-21" font-family="Helvetica,sans-Serif" font-size="10.00">GetDamage()</text>
<text fill="white" text-anchor="start" x="320.94" y="-5.75" font-family="Helvetica,sans-Serif" font-size="10.00">+</text>
<text fill="white" text-anchor="start" x="333.12" y="-5.75" font-family="Helvetica,sans-Serif" font-size="10.00">PickUp()</text>
<polygon fill="#666666" stroke="#666666" points="314.75,-63 314.75,-63 412,-63 412,-63 314.75,-63"/>
<polygon fill="#666666" stroke="#666666" points="314.75,-47.75 314.75,-47.75 412,-47.75 412,-47.75 314.75,-47.75"/>

</g>
</g>
<!-- Node5&#45;&gt;Node8 -->
<g id="edge7_Node000005_Node000008" class="edge">
<title>Node5&#45;&gt;Node8</title>
<g id="a_edge7_Node000005_Node000008">
<path fill="none" stroke="#63b8ff" d="M334.33,-135.96C340.14,-116.99 346.3,-96.88 351.45,-80.07"/>
<polygon fill="none" stroke="#63b8ff" points="330.99,-134.92 331.41,-145.51 337.68,-136.97 330.99,-134.92"/>

</g>
</g>
<!-- Node10 -->
<g id="Node000010" class="node">
<title>Node10</title>
<g id="a_Node000010">
<rect fill="#444477" stroke="none" width="92" height="50" x="429.62" y="-65" rx="10" ry="10" />
<text fill="white" text-anchor="start" x="433.62" y="-51.5" font-family="Helvetica,sans-Serif" font-size="10.00">core::BabyZombie</text>
<text fill="white" text-anchor="start" x="471.88" y="-36.25" font-family="Helvetica,sans-Serif" font-size="10.00"> </text>
<text fill="white" text-anchor="start" x="435.81" y="-21" font-family="Helvetica,sans-Serif" font-size="10.00">+</text>
<text fill="white" text-anchor="start" x="448" y="-21" font-family="Helvetica,sans-Serif" font-size="10.00">BabyZombie()</text>
<polygon fill="#666666" stroke="#666666" points="429.62,-47.75 429.62,-47.75 517.12,-47.75 517.12,-47.75 429.62,-47.75"/>
<polygon fill="#666666" stroke="#666666" points="429.62,-32.5 429.62,-32.5 517.12,-32.5 517.12,-32.5 429.62,-32.5"/>

</g>
</g>
<!-- Node9&#45;&gt;Node10 -->
<g id="edge9_Node000009_Node000010" class="edge">
<title>Node9&#45;&gt;Node10</title>
<g id="a_edge9_Node000009_Node000010">
<path fill="none" stroke="#63b8ff" d="M509.84,-106.68C501.18,-91.12 492.95,-76.31 486.5,-64.72"/>
<polygon fill="none" stroke="#63b8ff" points="506.61,-108.08 514.53,-115.12 512.73,-104.68 506.61,-108.08"/>

</g>
</g>
<!-- Node11 -->
<g id="Node000011" class="node">
<title>Node11</title>
<g id="a_Node000011">
<rect fill="#444477" stroke="none" width="55" height="50" x="534.75" y="-65" rx="10" ry="10" />
<text fill="white" text-anchor="start" x="538.75" y="-51.5" font-family="Helvetica,sans-Serif" font-size="10.00">core::Boss</text>
<text fill="white" text-anchor="start" x="560.88" y="-36.25" font-family="Helvetica,sans-Serif" font-size="10.00"> </text>
<text fill="white" text-anchor="start" x="540.94" y="-21" font-family="Helvetica,sans-Serif" font-size="10.00">+</text>
<text fill="white" text-anchor="start" x="553.12" y="-21" font-family="Helvetica,sans-Serif" font-size="10.00">Boss()</text>
<polygon fill="#666666" stroke="#666666" points="534.75,-47.75 534.75,-47.75 590,-47.75 590,-47.75 534.75,-47.75"/>
<polygon fill="#666666" stroke="#666666" points="534.75,-32.5 534.75,-32.5 590,-32.5 590,-32.5 534.75,-32.5"/>

</g>
</g>
<!-- Node9&#45;&gt;Node11 -->
<g id="edge10_Node000009_Node000011" class="edge">
<title>Node9&#45;&gt;Node11</title>
<g id="a_edge10_Node000009_Node000011">
<path fill="none" stroke="#63b8ff" d="M562.38,-105.36C562.38,-90.28 562.38,-75.98 562.38,-64.72"/>
<polygon fill="none" stroke="#63b8ff" points="558.88,-104.93 562.38,-114.93 565.88,-104.93 558.88,-104.93"/>

</g>
</g>
<!-- Node12 -->
<g id="Node000012" class="node">
<title>Node12</title>
<g id="a_Node000012">
<rect fill="#444477" stroke="none" width="68" height="50" x="608.38" y="-65" rx="10" ry="10" />
<text fill="white" text-anchor="start" x="612.38" y="-51.5" font-family="Helvetica,sans-Serif" font-size="10.00">core::Monster</text>
<text fill="white" text-anchor="start" x="640.88" y="-36.25" font-family="Helvetica,sans-Serif" font-size="10.00"> </text>
<text fill="white" text-anchor="start" x="614.56" y="-21" font-family="Helvetica,sans-Serif" font-size="10.00">+</text>
<text fill="white" text-anchor="start" x="626.75" y="-21" font-family="Helvetica,sans-Serif" font-size="10.00">Monster()</text>
<polygon fill="#666666" stroke="#666666" points="608.38,-47.75 608.38,-47.75 676.38,-47.75 676.38,-47.75 608.38,-47.75"/>
<polygon fill="#666666" stroke="#666666" points="608.38,-32.5 608.38,-32.5 676.38,-32.5 676.38,-32.5 608.38,-32.5"/>

</g>
</g>
<!-- Node9&#45;&gt;Node12 -->
<g id="edge11_Node000009_Node000012" class="edge">
<title>Node9&#45;&gt;Node12</title>
<g id="a_edge11_Node000009_Node000012">
<path fill="none" stroke="#63b8ff" d="M609.82,-106.24C617.52,-90.84 624.84,-76.2 630.58,-64.72"/>
<polygon fill="none" stroke="#63b8ff" points="606.74,-104.58 605.39,-115.09 613,-107.71 606.74,-104.58"/>

</g>
</g>
<!-- Node13 -->
<g id="Node000013" class="node">
<title>Node13</title>
<g id="a_Node000013">
<rect fill="#444477" stroke="none" width="52.5" height="50" x="694.62" y="-65" rx="10" ry="10" />
<text fill="white" text-anchor="start" x="698.62" y="-51.5" font-family="Helvetica,sans-Serif" font-size="10.00">core::Troll</text>
<text fill="white" text-anchor="start" x="718.88" y="-36.25" font-family="Helvetica,sans-Serif" font-size="10.00"> </text>
<text fill="white" text-anchor="start" x="700.81" y="-21" font-family="Helvetica,sans-Serif" font-size="10.00">+</text>
<text fill="white" text-anchor="start" x="713" y="-21" font-family="Helvetica,sans-Serif" font-size="10.00">Troll()</text>
<polygon fill="#666666" stroke="#666666" points="694.62,-47.75 694.62,-47.75 746.12,-47.75 746.12,-47.75 694.62,-47.75"/>
<polygon fill="#666666" stroke="#666666" points="694.62,-32.5 694.62,-32.5 746.12,-32.5 746.12,-32.5 694.62,-32.5"/>

</g>
</g>
<!-- Node9&#45;&gt;Node13 -->
<g id="edge12_Node000009_Node000013" class="edge">
<title>Node9&#45;&gt;Node13</title>
<g id="a_edge12_Node000009_Node000013">
<path fill="none" stroke="#63b8ff" d="M617.47,-118.02C618.1,-117.42 618.74,-116.83 619.38,-116.25 644.06,-93.74 659.19,-101 685.38,-80.25 691.09,-75.72 696.65,-70.2 701.6,-64.75"/>
<polygon fill="none" stroke="#63b8ff" points="615,-115.54 610.53,-125.14 620.02,-120.43 615,-115.54"/>

</g>
</g>
<!-- Node14 -->
<g id="Node000014" class="node">
<title>Node14</title>
<g id="a_Node000014">
<rect fill="#444477" stroke="none" width="65" height="50" x="763.88" y="-65" rx="10" ry="10" />
<text fill="white" text-anchor="start" x="767.88" y="-51.5" font-family="Helvetica,sans-Serif" font-size="10.00">core::Zombie</text>
<text fill="white" text-anchor="start" x="794.88" y="-36.25" font-family="Helvetica,sans-Serif" font-size="10.00"> </text>
<text fill="white" text-anchor="start" x="770.06" y="-21" font-family="Helvetica,sans-Serif" font-size="10.00">+</text>
<text fill="white" text-anchor="start" x="782.25" y="-21" font-family="Helvetica,sans-Serif" font-size="10.00">Zombie()</text>
<polygon fill="#666666" stroke="#666666" points="763.88,-47.75 763.88,-47.75 828.88,-47.75 828.88,-47.75 763.88,-47.75"/>
<polygon fill="#666666" stroke="#666666" points="763.88,-32.5 763.88,-32.5 828.88,-32.5 828.88,-32.5 763.88,-32.5"/>

</g>
</g>
<!-- Node9&#45;&gt;Node14 -->
<g id="edge13_Node000009_Node000014" class="edge">
<title>Node9&#45;&gt;Node14</title>
<g id="a_edge13_Node000009_Node000014">
<path fill="none" stroke="#63b8ff" d="M618.08,-117.19C618.51,-116.87 618.94,-116.56 619.38,-116.25 670.3,-79.97 700.82,-110.79 755.38,-80.25 762.59,-76.21 769.48,-70.61 775.49,-64.91"/>
<polygon fill="none" stroke="#63b8ff" points="616,-114.37 610.58,-123.47 620.49,-119.73 616,-114.37"/>

</g>
</g>
</g>
</svg>
